<svg xmlns="http://www.w3.org/2000/svg" xmlns:xlink="http://www.w3.org/1999/xlink">
	<symbol id="SVG001" viewBox="0 0 100 100">
        <path d="M90,87.2L75.4,72.6c6-6.6,9.6-15.4,9.6-25.1C85,26.8,68.2,10,47.5,10S10,26.8,10,47.5S26.8,85,47.5,85
        c9.6,0,18.4-3.6,25.1-9.6L87.2,90L90,87.2z M47.5,81C29,81,14,66,14,47.5C14,29,29,14,47.5,14S81,29,81,47.5C81,66,66,81,47.5,81z"/>
    </symbol>

	<symbol id="SVG007" viewBox="0 0 100 100">
        <path d="M50.1,20.6c11,0,20,9,20,20s-9,20-20,20s-20-9-20-20S39.1,20.6,50.1,20.6 M50.1,15.6c-13.8,0-25,11.2-25,25s11.1,25,25,25
		s25-11.2,25-25S63.9,15.6,50.1,15.6L50.1,15.6z M50,5c19.2,0,35,15.9,35,35.5c0,24.2-26.2,46.6-35,53.4c-8.8-6.8-35-29-35-53.4
		C15,20.9,30.7,5,50,5 M50,0C27.9,0,10,18.1,10,40.5C10,72.6,50,100,50,100s40-27.5,40-59.5C90,18.1,72.1,0,50,0L50,0z"/>
    </symbol>

	<symbol id="SVG011" viewBox="0 0 100 100">
        <path d="M100,47H53V0h-6v47H0v6h47v47h6V53h47V47z"/>
    </symbol>

	<symbol id="SVG012" viewBox="0 0 100 100">
        <path d="M27.2,100.1L23,95.9l45.6-45.8l-45.8-46L27-0.1l50.2,50.2L27.2,100.1z"/>
    </symbol>

    <symbol id="SVG013" viewBox="0 0 100 100">
        <path d="M72.8-0.1L77,4.1L31.4,49.9l45.8,46l-4.2,4.2L22.8,49.9L72.8-0.1z"/>
    </symbol>

	<symbol id="SVG014" viewBox="0 0 100 100">
        <path d="M100.1,72.8L95.9,77L50.1,31.4l-46,45.8L-0.1,73l50.2-50.2L100.1,72.8z"/>
    </symbol>

    <symbol id="SVG015" viewBox="0 0 100 100">
        <path d="M-0.1,27.2L4.1,23l45.8,45.6l46-45.8l4.2,4.2L49.9,77.2L-0.1,27.2z"/>
    </symbol>

	<symbol id="SVG016" viewBox="0 0 100 100">
        <path d="M0.7,5l45,45l-45,45L5,99.3l45-45l45,45l4.2-4.2l-45-45l45-45L95,0.7l-45,45L5,0.7L0.7,5z"/>
    </symbol>

	<symbol id="SVG018" viewBox="0 0 100 100">
        <path d="M100,47H0v6h100V47z M100,14H0v6h100V14z M100,80H0v6h100V80z"/>
    </symbol>

	<symbol id="SVG019" viewBox="0 0 100 100">
        <path d="M50,0C22.4,0,0,22.4,0,50s22.4,50,50,50s50-22.4,50-50S77.6,0,50,0z M50.1,95.4c-24.6,0-44.5-19.9-44.5-44.5
	S25.5,6.4,50.1,6.4s44.5,19.9,44.5,44.5S74.7,95.4,50.1,95.4z M20.1,24h60v6h-60V24z M63.2,58L53.1,47.8v32h-6V47.7L36.8,58
	l-4.2-4.2L50,36.4l17.4,17.4L63.2,58z"/>
    </symbol>

	<symbol id="SVG021" viewBox="0 0 100 100">
        <path d="M34.5,61.9L47,74.5V41h6v33.5l12.5-12.5l4.2,4.2L50,85.9L30.3,66.1L34.5,61.9z M94,69.9V94H6V69.9H0V94v3v3h100
	c0,0,0-1.5,0-3s0-3,0-3V69.9H94z M53,29h-6v9h6V29z M53,18h-6v8h6V18z M53,9h-6v6h6V9z M53,0h-6v6h6V0z"/>
    </symbol>

	<symbol id="SVG028" viewBox="0 0 100 100">
        <path d="M97.9,25.8c-1.1-4.4-4.5-7.8-8.9-8.9c-7.8-2.1-39-2.1-39-2.1s-31.2,0-39.1,2.1C6.6,18,3.1,21.5,2,25.8C0,33.6,0,50,0,50
	s0,16.4,2.1,24.3c1.1,4.4,4.5,7.7,8.9,8.9c7.8,2.1,39,2.1,39,2.1s31.2,0,39.1-2.1c4.3-1.1,7.8-4.6,8.9-8.9c2-7.9,2-24.3,2-24.3
	S100,33.6,97.9,25.8z M39.8,64.9V35.1L65.9,50L39.8,64.9z"/>
    </symbol>

	<symbol id="SVG034" viewBox="0 0 100 100">
        <path d="M0,0v100h100V0H0z M95,5v23.1L50,40L5,28.1V5H95z M5,95V33.2l45,11.9l45-11.9V95H5z"/>
    </symbol>

	<symbol id="SVG035" viewBox="0 0 100 100">
        <path d="M79.4,58.8c-7.4,0-13.9,3.9-17.5,9.8L39.9,58c0.9-2.2,1.4-4.7,1.4-7.4c0-2.5-0.5-4.9-1.2-7.1l22.1-11.7
		c3.5,5.7,10,9.5,17.2,9.5c11.4,0,20.6-9.3,20.6-20.6S90.8,0,79.4,0S58.8,9.2,58.8,20.6c0,2.2,0.4,4.5,1.1,6.6L37.8,39
		c-3.8-5.5-10-9-17-9C9.2,30,0,39.2,0,50.6s9.2,20.6,20.6,20.6c7,0,13.1-3.5,16.9-8.9L59.8,73c-0.6,2-1,4.1-1,6.2
		c0,11.5,9.2,20.8,20.6,20.8S100,90.8,100,79.4S90.8,58.8,79.4,58.8z M63.8,20.6C63.8,12,70.8,5,79.4,5S95,12,95,20.6
		s-7,15.6-15.6,15.6c-5.4,0-10.1-2.8-12.9-6.9c-0.9-1.4-1.6-2.9-2.1-4.5C64,23.5,63.8,22.1,63.8,20.6z M20.6,66.2
		C12,66.2,5,59.2,5,50.6S12,35,20.6,35c5.1,0,9.8,2.5,12.6,6.4c1,1.4,1.8,2.9,2.2,4.5c0.5,1.5,0.8,3.1,0.8,4.8
		c0,1.9-0.4,3.6-0.9,5.2C34.7,57.5,34,59,33,60.2C30.1,63.9,25.6,66.2,20.6,66.2z M79.4,95c-8.6,0-15.6-7-15.6-15.6
		c0-1.4,0.2-2.8,0.6-4.1c0.5-1.6,1.1-3.1,2.1-4.5c2.8-4.2,7.6-7,13-7c8.5,0,15.5,7,15.5,15.6S88,95,79.4,95z"/>
    </symbol>

	<symbol id="SVG036" viewBox="0 0 100 100">
        <path d="M81.2,25V0H18.8v25H0v53.8h27.5V100h45V78.8H100V25H81.2z M23.8,5h52.5v20H23.8V5z M67.5,70v5v20h-35V75v-5
	V55h5v5h25v-5h5V70z M95,73.8H72.5V55h8.8v-5h-8.8h-45h-8.8v5h8.8v18.8H5V30h13.8h5h52.5h5H95V73.8z M37.5,65h25v5h-25V65z M37.5,75
	h25v5h-25V75z M37.5,85h25v5h-25V85z"/>
    </symbol>

	<symbol id="SVG041" viewBox="0 0 100 100">
        <path d="M85,40.6v13.8h-5V33.1H67.5v-15H50v-5h17.5v-5h-40v5H45v5H27.5v11.2H10v21.2H5V29.4H0v47.5h5V55.6h5v21.2h18.8l8.8,15H80
		v-20h5v11.2h15V40.6H85z M95,78.1h-5V66.9H75v20H40.5l-8.7-15H15V34.4h17.5V23.1h30v15H75v21.2h15V45.6h5V78.1z"/>
    </symbol>

	<symbol id="SVG050" viewBox="0 0 100 100">
        <path d="M45.3,53.7L40.9,32c-0.5-1.5,0.5-2.5,1.2-2.6c0.7-0.2,2.1,0,2.6,1.5l8.5,20.2c1.1,0.6,2,1.7,2.4,3c0.9,2.9-0.7,6-3.6,6.9
		c-2.9,0.9-6-0.7-6.9-3.6C44.7,56.1,44.8,54.9,45.3,53.7z M100,56.2c0,4.4-0.5,8.5-1.6,12.5h-5.2c0.9-3.2,1.5-6.5,1.7-10h-7.4v-5
		h7.4c-0.5-9.9-4.4-19-10.2-26.2l-5,4.9l-3.5-3.6l5.1-5c-7.5-7.2-17.6-12-28.7-12.6v7.6h-5v-7.4C36.5,12,26.3,16.7,18.9,24l5,5.1
		l-3.5,3.4l-4.9-5C9.6,34.5,5.9,44,5.1,53.7h7.5v5H5.1c0.1,3.7,0.7,6.6,1.7,10H1.6c-1-4-1.6-8.1-1.6-12.5C0,28.7,22.3,6.3,49.9,6.3
		C77.7,6.3,100,28.7,100,56.2z M5.1,86.1c0-5.2,2.1-7.6,6.9-7.6s6.9,2.4,6.9,7.6c0,5.2-2.1,7.6-6.9,7.6S5.1,91.3,5.1,86.1z
		 M14.7,86.1c0-2.9-0.6-4-2.7-4s-2.7,1.1-2.7,4c0,2.9,0.7,4.2,2.7,4.2C14.1,90.2,14.7,89,14.7,86.1z M61.3,86.2L55.1,80v3.7h-30v5
		h30v3.7L61.3,86.2z M73.3,93.7c4.7,0,6.4-2,6.4-5.4c0-3.1-1.1-4.9-5-4.9c-2.5,0-3.7,0.5-4.4,1.4c0.1-1.2-0.1-2.9,5.5-2.9h1.9v-3.4
		h-1.7c-7.7,0-9.5,2.2-9.5,8.2C66.3,91.2,68.2,93.7,73.3,93.7z M73.3,90.4c-2,0-2.7-0.6-2.7-2c0-1.4,0.9-2,2.7-2c2,0,2.5,0.7,2.5,2
		C75.8,89.7,75.4,90.4,73.3,90.4z M88.1,93.7c4.7,0,6.9-2.4,6.9-7.6c0-5.2-2.1-7.6-6.9-7.6s-6.9,2.4-6.9,7.6
		C81.3,91.3,83.4,93.7,88.1,93.7z M88.1,90.2c-2.1,0-2.7-1.2-2.7-4.2c0-2.9,0.7-4,2.7-4c2.1,0,2.7,1.1,2.7,4
		C90.9,89,90.3,90.2,88.1,90.2z"/>
    </symbol>

	<symbol id="SVG051" viewBox="0 0 100 100">
        <path d="M87.4,24.9L87.4,24.9L87.4,24.9V0l0,0l0,0h-15l0,0l0,0v10H55.4c-1.1-1.9-3.1-3.1-5.4-3.1s-4.2,1.2-5.4,3.1H27.6V0l0,0l0,0
		h-15l0,0l0,0v24.9l0,0l0,0h15l0,0l0,0V15h16.6c0.5,1.7,1.7,3.1,3.4,3.9v34.5c-5,1.1-8.7,5.6-8.7,11s3.7,9.9,8.7,11v6.5
		c-1.5,0.6-2.6,1.7-3.2,3.2H27.6v-10l0,0l0,0h-15l0,0l0,0V100l0,0l0,0h15l0,0l0,0V90h16.7c1,2.2,3.1,3.7,5.7,3.7s4.7-1.5,5.7-3.7
		h16.7v10l0,0l0,0h15l0,0l0,0V74.8l0,0l0,0h-15l0,0l0,0v10H55.7c-0.6-1.5-1.7-2.6-3.2-3.2v-6.5c5-1.1,8.7-5.6,8.7-11
		s-3.7-9.9-8.7-11V18.8c1.6-0.7,2.9-2.1,3.4-3.9h16.6v10l0,0l0,0H87.4z M22.6,20h-5V5h5V20z M22.6,94.8h-5v-15h5V94.8z M77.4,79.8h5
		v15h-5V79.8z M56.2,64.2c0,3.5-2.7,6.2-6.2,6.2s-6.2-2.7-6.2-6.2c0-3.5,2.7-6.2,6.2-6.2S56.2,60.7,56.2,64.2z M77.4,5h5v15h-5V5z"
		/>
    </symbol>

	<symbol id="SVG054" viewBox="0 0 100 100">
        <path d="M100,62.5v-25h-9.4c-0.8-2.6-1.9-5-3.1-7.4l6.6-6.6L76.5,5.8l-6.6,6.7c-2.4-1.2-4.8-2.2-7.4-3.1V0h-25v9.4
			c-2.6,0.8-5,1.9-7.4,3.1l-6.6-6.6L5.8,23.5l6.6,6.6c-1.2,2.4-2.2,4.7-3.1,7.4H0v25h9.4c0.8,2.6,1.9,5,3.1,7.4l-6.6,6.6l17.6,17.6
			l6.6-6.6c2.4,1.2,4.7,2.2,7.4,3.1v9.4h25v-9.4c2.6-0.8,5-1.9,7.4-3.1l6.6,6.6l17.6-17.6l-6.6-6.6c1.2-2.4,2.2-4.8,3.1-7.4H100z
			 M86.8,57.5c-0.4,1.8-0.9,3.4-1.4,5c-0.5,1.2-1,2.5-1.5,3.6c-0.8,1.6-1.6,3.1-2.6,4.5l3.6,3.6l2.2,2.3L76.5,87.1l-2.2-2.3
			l-3.6-3.6c-1.4,1-3,1.9-4.5,2.6c-1.1,0.5-2.4,1-3.6,1.5c-1.6,0.6-3.2,1-5,1.4v5.1V95h-15v-3.1v-5.1c-1.8-0.4-3.4-0.9-5-1.4
			c-1.2-0.5-2.5-1-3.6-1.5c-1.6-0.8-3.1-1.6-4.5-2.6l-3.6,3.6l-2.2,2.2L12.9,76.5l2.2-2.2l3.6-3.6c-1-1.4-1.9-3-2.6-4.5
			c-0.5-1.1-1-2.4-1.5-3.6c-0.6-1.6-1-3.2-1.4-5H8.1H5v-15h3.1h5.1c0.4-1.8,0.9-3.4,1.4-5c0.5-1.2,1-2.5,1.5-3.6
			c0.8-1.6,1.6-3.1,2.6-4.5l-3.6-3.6l-2.2-2.2l10.6-10.6l2.2,2.2l3.6,3.6c1.4-1,3-1.9,4.5-2.6c1.1-0.6,2.4-1.1,3.6-1.5
			c1.6-0.6,3.2-1,5-1.4V8.1V5h15v3.1v5.1c1.8,0.4,3.4,0.9,5,1.4c1.2,0.5,2.5,1,3.6,1.5c1.6,0.8,3.1,1.6,4.5,2.6l3.6-3.6l2.2-2.2
			l10.6,10.6l-2.2,2.2l-3.6,3.6c1,1.4,1.9,3,2.6,4.5c0.6,1.1,1.1,2.4,1.5,3.6c0.6,1.6,1,3.2,1.4,5h5.1H95v15h-3.1H86.8z"/>
		<path d="M74.1,43.5c-0.1-0.4-0.1-0.8-0.2-1c-0.5-1.4-1-2.8-1.8-4c-0.1-0.4-0.4-0.6-0.5-1c-2.2-3.8-5.4-6.9-9.1-9.1
			c-0.4-0.1-0.6-0.4-1-0.5c-1.2-0.6-2.6-1.2-4-1.8c-0.4-0.1-0.7-0.1-1-0.3C54.4,25.4,52.2,25,50,25s-4.4,0.4-6.5,0.9
			c-0.4,0.1-0.8,0.1-1,0.3c-1.4,0.5-2.8,1-4,1.8c-0.4,0.1-0.6,0.4-1,0.5c-3.8,2.2-6.9,5.4-9.1,9.1c-0.1,0.4-0.4,0.6-0.5,1
			c-0.6,1.2-1.2,2.6-1.8,4c-0.1,0.4-0.1,0.8-0.3,1C25.4,45.6,25,47.8,25,50s0.4,4.4,0.9,6.5c0.1,0.4,0.1,0.8,0.3,1
			c0.5,1.4,1,2.8,1.8,4c0.1,0.4,0.4,0.6,0.5,1c2.2,3.8,5.4,6.9,9.1,9.1c0.4,0.1,0.6,0.4,1,0.5c1.2,0.6,2.6,1.2,4,1.8
			c0.4,0.1,0.8,0.1,1,0.2c2,0.5,4.3,0.9,6.5,0.9c2.2,0,4.4-0.4,6.5-0.9c0.4-0.1,0.7-0.1,1-0.2c1.4-0.5,2.8-1,4-1.8
			c0.4-0.1,0.6-0.4,1-0.5c3.8-2.2,6.9-5.4,9.1-9.1c0.1-0.4,0.4-0.6,0.5-1c0.6-1.2,1.2-2.6,1.8-4c0.1-0.4,0.1-0.7,0.2-1
			c0.5-2,0.9-4.3,0.9-6.5C75,47.8,74.6,45.6,74.1,43.5z M68.5,57.5c0,0.1-0.1,0.2-0.1,0.2c-0.8,1.8-1.6,3.2-2.9,4.8
			c-0.9,1.1-2,2.1-3.1,3.1c-1.4,1.1-3,2.1-4.8,2.9c-0.1,0-0.2,0.1-0.2,0.1c-1.6,0.6-3.5,1.1-5.2,1.4c-0.6,0-1.4,0-2.1,0
			s-1.5,0-2.2-0.1c-1.9-0.2-3.6-0.6-5.2-1.4c-0.1,0-0.2-0.1-0.2-0.1c-1.8-0.8-3.2-1.6-4.8-2.9c-1.1-0.9-2.1-2-3.1-3.1
			c-1.1-1.4-2.1-3-2.9-4.8c0-0.1-0.1-0.2-0.1-0.2c-0.6-1.6-1.1-3.5-1.4-5.2c0-0.6,0-1.4,0-2.1s0-1.5,0.1-2.2
			c0.3-1.9,0.6-3.6,1.4-5.2c0-0.1,0.1-0.2,0.1-0.2c0.7-1.8,1.6-3.2,2.9-4.8c0.9-1.1,2-2.1,3.1-3.1c1.4-1.1,3-2.1,4.8-2.9
			c0.1,0,0.2-0.1,0.2-0.1c1.6-0.6,3.5-1.1,5.2-1.4c0.6,0,1.4,0,2.1,0s1.5,0,2.2,0.1c1.9,0.3,3.6,0.6,5.2,1.4c0.1,0,0.2,0.1,0.2,0.1
			c1.8,0.7,3.2,1.6,4.8,2.9c1.1,0.9,2.1,2,3.1,3.1c1.1,1.4,2.1,3,2.9,4.8c0,0.1,0.1,0.2,0.1,0.2c0.6,1.6,1.1,3.5,1.4,5.2
			c0,0.6,0,1.4,0,2.1s0,1.5-0.1,2.2C69.6,54,69.2,55.9,68.5,57.5z"/>
    </symbol>

	<symbol id="SVG056" viewBox="0 0 100 100">
        <path class="st0" d="M70.6,2C62.4,2,55.1,5.6,50,11.3C45,5.6,37.6,2,29.4,2C14.4,2,2,14.4,2,29.4c0,6.1,2,11.9,5.4,16.4l0,0L50,98
			l42.6-52.2l0,0c3.5-4.6,5.4-10.3,5.4-16.4C98,14.4,85.6,2,70.6,2L70.6,2z"/>
    </symbol>

	<symbol id="SVG072" viewBox="0 0 100 100">
        <polygon points="50,0 65.5,32.9 100,38.2 74.9,63.9 80.9,100 50,82.9 19.1,100 25.1,63.9 0,38.2 34.5,32.9 "/>
    </symbol>

	<symbol id="SVG073" viewBox="0 0 100 100">
        <path class="st0" d="M23.5,55.2V10h-4v45.2c-5.4,0.9-9.5,5.6-9.5,11.3s4.1,10.4,9.5,11.3V90h4V77.8c5.4-0.9,9.5-5.6,9.5-11.3
			S28.9,56.1,23.5,55.2z M23.5,73.7c-0.6,0.2-1.3,0.3-2,0.3s-1.4-0.1-2-0.3c-3.2-0.9-5.5-3.8-5.5-7.2s2.3-6.3,5.5-7.2
			c0.6-0.2,1.3-0.3,2-0.3s1.4,0.1,2,0.3c3.2,0.9,5.5,3.8,5.5,7.2S26.7,72.8,23.5,73.7z"/>
		<path class="st0" d="M80.5,36.2V10h-4v26.2c-5.4,0.9-9.5,5.6-9.5,11.3s4.1,10.4,9.5,11.3V90h4V58.8c5.4-0.9,9.5-5.6,9.5-11.3
			S85.9,37.1,80.5,36.2z M80.5,54.7c-0.6,0.2-1.3,0.3-2,0.3s-1.4-0.1-2-0.3c-3.2-0.9-5.5-3.8-5.5-7.2s2.3-6.3,5.5-7.2
			c0.6-0.2,1.3-0.3,2-0.3s1.4,0.1,2,0.3c3.2,0.9,5.5,3.8,5.5,7.2S83.7,53.8,80.5,54.7z"/>
		<path class="st0" d="M52,20.2V10h-4v10.2c-5.4,0.9-9.5,5.6-9.5,11.3s4.1,10.4,9.5,11.3V90h4V42.8c5.4-0.9,9.5-5.6,9.5-11.3
			S57.4,21.1,52,20.2z M52,38.7c-0.6,0.2-1.3,0.3-2,0.3s-1.4-0.1-2-0.3c-3.2-0.9-5.5-3.8-5.5-7.2s2.3-6.3,5.5-7.2
			c0.6-0.2,1.3-0.3,2-0.3s1.4,0.1,2,0.3c3.2,0.9,5.5,3.8,5.5,7.2S55.2,37.8,52,38.7z"/>
    </symbol>

	<symbol id="SVG074" viewBox="0 0 100 100">
		<path d="M54.6,60.5L54.6,60.5L54.6,60.5z M50,11.3l42,83.8H8.2L50,11.3 M50,0.1l-49.9,100h100L50,0.1L50,0.1z M45.4,35.4
	c1.3-1.2,2.8-1.8,4.6-1.8c1.7,0,3.2,0.6,4.5,1.8c1.3,1.2,2,3.1,2,5.8c0,0.8-0.2,2.1-0.6,3.8c-0.4,1.7-1.2,4.5-2.2,8.4
	c-0.6,2.3-1.1,4.3-1.3,5.9c-0.2,1.6-0.6,4.7-1.1,9.4H49c-0.7-5.9-1.2-9.6-1.5-11c-0.2-1.4-0.7-3.4-1.5-5.9c-0.9-3.2-1.6-5.4-1.8-6.4
	c-0.4-1.7-0.6-3-0.6-3.9C43.5,38.6,44.2,36.6,45.4,35.4z M45.4,76.6c1.3-1.3,2.8-1.9,4.6-1.9s3.3,0.6,4.6,1.9s1.9,2.8,1.9,4.6
	s-0.6,3.3-1.9,4.6s-2.8,1.9-4.6,1.9s-3.3-0.6-4.6-1.9s-1.9-2.8-1.9-4.6S44.2,77.9,45.4,76.6z"/>
    </symbol>

    <symbol id="SVG075" viewBox="0 0 100 100">
		<path d="M100,20.5l-7-7L33.8,72.2L7,45.9l-7,7l33.8,33.6L100,20.5z"/>
    </symbol>
</svg>
